<svg xmlns="http://www.w3.org/2000/svg" viewBox="0 0 512 512" width="512" height="512">
  <!-- Background -->
  <rect width="512" height="512" rx="112" fill="#08120E"/>
  
  <!-- Decorative Inner Ring -->
  <circle cx="256" cy="256" r="210" fill="none" stroke="#0C3823" stroke-width="8"/>
  <circle cx="256" cy="256" r="190" fill="#0A1C16" />

  <!-- Golf Flag / Central Palm Spine -->
  <!-- Flagpole -->
  <line x1="256" y1="110" x2="256" y2="390" stroke="#D4A373" stroke-width="12" stroke-linecap="round"/>
  <!-- Golf Cup / Green Hole -->
  <ellipse cx="256" cy="390" rx="36" ry="12" fill="#08120E" stroke="#D4A373" stroke-width="5" />
  <!-- Flag (Triangle) -->
  <path d="M 256 110 L 340 150 L 256 190 Z" fill="#D4A373"/>

  <!-- Symmetrical Palm Leaflets - Left Side -->
  <path d="M 256 220 Q 150 190 100 250 Q 170 270 256 245 Z" fill="#D4A373" opacity="0.9"/>
  <path d="M 256 270 Q 130 250 80 310 Q 160 330 256 295 Z" fill="#D4A373" opacity="0.9"/>
  <path d="M 256 320 Q 140 310 90 370 Q 170 380 256 345 Z" fill="#D4A373" opacity="0.9"/>

  <!-- Symmetrical Palm Leaflets - Right Side -->
  <path d="M 256 220 Q 362 190 412 250 Q 342 270 256 245 Z" fill="#D4A373" opacity="0.9"/>
  <path d="M 256 270 Q 382 250 432 310 Q 352 330 256 295 Z" fill="#D4A373" opacity="0.9"/>
  <path d="M 256 320 Q 372 310 422 370 Q 342 380 256 345 Z" fill="#D4A373" opacity="0.9"/>
</svg>
